<mxfile host="app.diagrams.net" agent="Mozilla/5.0 (Windows NT 10.0; Win64; x64) AppleWebKit/537.36 (KHTML, like Gecko) Chrome/127.0.0.0 Safari/537.36 Edg/127.0.0.0" version="24.7.6">
  <diagram name="Page-1" id="d66fe2ae-3e9f-cf2f-6d29-e24063ad5d60">
    <mxGraphModel dx="7527" dy="4250" grid="1" gridSize="10" guides="1" tooltips="1" connect="1" arrows="1" fold="1" page="1" pageScale="1" pageWidth="1100" pageHeight="850" background="none" math="0" shadow="0">
      <root>
        <mxCell id="0" />
        <mxCell id="1" parent="0" />
        <mxCell id="5fc5e51f7ca293a3-5" value="ISP" style="fontColor=#0066CC;verticalAlign=top;verticalLabelPosition=bottom;labelPosition=center;align=center;html=1;fillColor=#CCCCCC;strokeColor=#6881B3;gradientColor=none;gradientDirection=north;strokeWidth=2;shape=mxgraph.networks.server;rounded=1;shadow=0;comic=0;labelBackgroundColor=#ffffff;" parent="1" vertex="1">
          <mxGeometry x="-2115" y="529" width="90" height="100" as="geometry" />
        </mxCell>
        <mxCell id="EZrMMr4mUKjMRH0wWhmC-71" style="edgeStyle=orthogonalEdgeStyle;rounded=0;orthogonalLoop=1;jettySize=auto;html=1;" edge="1" parent="1" source="5fc5e51f7ca293a3-198" target="EZrMMr4mUKjMRH0wWhmC-33">
          <mxGeometry relative="1" as="geometry">
            <Array as="points">
              <mxPoint x="-770" y="1801" />
            </Array>
          </mxGeometry>
        </mxCell>
        <mxCell id="5fc5e51f7ca293a3-198" value="router" style="fontColor=#0066CC;verticalAlign=top;verticalLabelPosition=bottom;labelPosition=center;align=center;html=1;fillColor=#CCCCCC;strokeColor=#6881B3;gradientColor=none;gradientDirection=north;strokeWidth=2;shape=mxgraph.networks.router;rounded=1;shadow=0;comic=0;labelBackgroundColor=#ffffff;" parent="1" vertex="1">
          <mxGeometry x="-820" y="1597" width="100" height="30" as="geometry" />
        </mxCell>
        <mxCell id="5fc5e51f7ca293a3-202" style="edgeStyle=none;html=1;labelBackgroundColor=none;endArrow=none;strokeWidth=2;fontFamily=Verdana;fontSize=28;fontColor=#0066CC;rounded=0;strokeColor=#6881B3;" parent="1" source="5fc5e51f7ca293a3-206" target="5fc5e51f7ca293a3-212" edge="1">
          <mxGeometry relative="1" as="geometry" />
        </mxCell>
        <mxCell id="5fc5e51f7ca293a3-204" style="edgeStyle=none;html=1;labelBackgroundColor=none;endArrow=none;strokeWidth=2;fontFamily=Verdana;fontSize=28;fontColor=#0066CC;rounded=0;strokeColor=#6881B3;" parent="1" source="5fc5e51f7ca293a3-206" target="5fc5e51f7ca293a3-210" edge="1">
          <mxGeometry relative="1" as="geometry" />
        </mxCell>
        <mxCell id="5fc5e51f7ca293a3-205" style="edgeStyle=none;html=1;labelBackgroundColor=none;endArrow=none;strokeWidth=2;fontFamily=Verdana;fontSize=28;fontColor=#0066CC;rounded=0;strokeColor=#6881B3;" parent="1" source="5fc5e51f7ca293a3-206" target="5fc5e51f7ca293a3-198" edge="1">
          <mxGeometry relative="1" as="geometry" />
        </mxCell>
        <mxCell id="5fc5e51f7ca293a3-206" value="switch" style="fontColor=#0066CC;verticalAlign=top;verticalLabelPosition=bottom;labelPosition=center;align=center;html=1;fillColor=#CCCCCC;strokeColor=#6881B3;gradientColor=none;gradientDirection=north;strokeWidth=2;shape=mxgraph.networks.switch;rounded=1;shadow=0;comic=0;labelBackgroundColor=#ffffff;" parent="1" vertex="1">
          <mxGeometry x="-470" y="1602" width="100" height="30" as="geometry" />
        </mxCell>
        <mxCell id="5fc5e51f7ca293a3-210" value="workstation" style="fontColor=#0066CC;verticalAlign=top;verticalLabelPosition=bottom;labelPosition=center;align=center;html=1;fillColor=#CCCCCC;strokeColor=#6881B3;gradientColor=none;gradientDirection=north;strokeWidth=2;shape=mxgraph.networks.pc;rounded=1;shadow=0;comic=0;labelBackgroundColor=#ffffff;" parent="1" vertex="1">
          <mxGeometry x="-230" y="1497" width="100" height="70" as="geometry" />
        </mxCell>
        <mxCell id="5fc5e51f7ca293a3-212" value="workstation" style="fontColor=#0066CC;verticalAlign=top;verticalLabelPosition=bottom;labelPosition=center;align=center;html=1;fillColor=#CCCCCC;strokeColor=#6881B3;gradientColor=none;gradientDirection=north;strokeWidth=2;shape=mxgraph.networks.pc;rounded=1;shadow=0;comic=0;labelBackgroundColor=#ffffff;" parent="1" vertex="1">
          <mxGeometry x="-230" y="1700" width="100" height="70" as="geometry" />
        </mxCell>
        <mxCell id="5fc5e51f7ca293a3-213" style="edgeStyle=none;html=1;labelBackgroundColor=none;endArrow=none;strokeWidth=2;fontFamily=Verdana;fontSize=28;fontColor=#0066CC;rounded=0;strokeColor=#6881B3;" parent="1" source="5fc5e51f7ca293a3-214" target="5fc5e51f7ca293a3-206" edge="1">
          <mxGeometry relative="1" as="geometry" />
        </mxCell>
        <mxCell id="5fc5e51f7ca293a3-214" value="printer" style="fontColor=#0066CC;verticalAlign=top;verticalLabelPosition=bottom;labelPosition=center;align=center;html=1;fillColor=#CCCCCC;strokeColor=#6881B3;gradientColor=none;gradientDirection=north;strokeWidth=2;shape=mxgraph.networks.printer;rounded=1;shadow=0;comic=0;labelBackgroundColor=#ffffff;" parent="1" vertex="1">
          <mxGeometry x="-230" y="1587" width="100" height="100" as="geometry" />
        </mxCell>
        <mxCell id="5fc5e51f7ca293a3-215" value="firewall" style="fontColor=#0066CC;verticalAlign=top;verticalLabelPosition=bottom;labelPosition=center;align=center;html=1;fillColor=#CCCCCC;strokeColor=#6881B3;gradientColor=none;gradientDirection=north;strokeWidth=2;shape=mxgraph.networks.firewall;rounded=1;shadow=0;comic=0;labelBackgroundColor=#ffffff;" parent="1" vertex="1">
          <mxGeometry x="-1590" y="1432" width="100" height="100" as="geometry" />
        </mxCell>
        <mxCell id="EZrMMr4mUKjMRH0wWhmC-23" style="edgeStyle=orthogonalEdgeStyle;rounded=0;orthogonalLoop=1;jettySize=auto;html=1;" edge="1" parent="1" source="EZrMMr4mUKjMRH0wWhmC-1" target="EZrMMr4mUKjMRH0wWhmC-20">
          <mxGeometry relative="1" as="geometry">
            <Array as="points">
              <mxPoint x="-1930" y="869" />
              <mxPoint x="-1930" y="1482" />
            </Array>
          </mxGeometry>
        </mxCell>
        <mxCell id="EZrMMr4mUKjMRH0wWhmC-27" style="edgeStyle=orthogonalEdgeStyle;rounded=0;orthogonalLoop=1;jettySize=auto;html=1;" edge="1" parent="1" source="EZrMMr4mUKjMRH0wWhmC-1" target="EZrMMr4mUKjMRH0wWhmC-25">
          <mxGeometry relative="1" as="geometry">
            <Array as="points">
              <mxPoint x="-1930" y="869" />
              <mxPoint x="-1930" y="1795" />
            </Array>
          </mxGeometry>
        </mxCell>
        <mxCell id="EZrMMr4mUKjMRH0wWhmC-84" style="edgeStyle=orthogonalEdgeStyle;rounded=0;orthogonalLoop=1;jettySize=auto;html=1;" edge="1" parent="1" source="EZrMMr4mUKjMRH0wWhmC-1" target="EZrMMr4mUKjMRH0wWhmC-82">
          <mxGeometry relative="1" as="geometry">
            <Array as="points">
              <mxPoint x="-1930" y="869" />
              <mxPoint x="-1930" y="1089" />
            </Array>
          </mxGeometry>
        </mxCell>
        <mxCell id="EZrMMr4mUKjMRH0wWhmC-119" style="edgeStyle=orthogonalEdgeStyle;rounded=0;orthogonalLoop=1;jettySize=auto;html=1;" edge="1" parent="1" source="EZrMMr4mUKjMRH0wWhmC-1" target="EZrMMr4mUKjMRH0wWhmC-103">
          <mxGeometry relative="1" as="geometry">
            <Array as="points">
              <mxPoint x="-1930" y="868" />
              <mxPoint x="-1930" y="812" />
            </Array>
          </mxGeometry>
        </mxCell>
        <mxCell id="EZrMMr4mUKjMRH0wWhmC-138" style="edgeStyle=orthogonalEdgeStyle;rounded=0;orthogonalLoop=1;jettySize=auto;html=1;" edge="1" parent="1" source="EZrMMr4mUKjMRH0wWhmC-1" target="EZrMMr4mUKjMRH0wWhmC-123">
          <mxGeometry relative="1" as="geometry">
            <Array as="points">
              <mxPoint x="-1930" y="869" />
              <mxPoint x="-1930" y="539" />
            </Array>
          </mxGeometry>
        </mxCell>
        <mxCell id="EZrMMr4mUKjMRH0wWhmC-157" style="edgeStyle=orthogonalEdgeStyle;rounded=0;orthogonalLoop=1;jettySize=auto;html=1;" edge="1" parent="1" source="EZrMMr4mUKjMRH0wWhmC-1" target="EZrMMr4mUKjMRH0wWhmC-141">
          <mxGeometry relative="1" as="geometry">
            <Array as="points">
              <mxPoint x="-1930" y="869" />
              <mxPoint x="-1930" y="257" />
            </Array>
          </mxGeometry>
        </mxCell>
        <mxCell id="EZrMMr4mUKjMRH0wWhmC-172" style="edgeStyle=orthogonalEdgeStyle;rounded=0;orthogonalLoop=1;jettySize=auto;html=1;" edge="1" parent="1" source="EZrMMr4mUKjMRH0wWhmC-1" target="EZrMMr4mUKjMRH0wWhmC-165">
          <mxGeometry relative="1" as="geometry">
            <Array as="points">
              <mxPoint x="-1930" y="869" />
              <mxPoint x="-1930" y="-11" />
            </Array>
          </mxGeometry>
        </mxCell>
        <mxCell id="EZrMMr4mUKjMRH0wWhmC-187" style="edgeStyle=orthogonalEdgeStyle;rounded=0;orthogonalLoop=1;jettySize=auto;html=1;" edge="1" parent="1" source="EZrMMr4mUKjMRH0wWhmC-1" target="EZrMMr4mUKjMRH0wWhmC-179">
          <mxGeometry relative="1" as="geometry">
            <Array as="points">
              <mxPoint x="-1930" y="867" />
              <mxPoint x="-1930" y="-325" />
            </Array>
          </mxGeometry>
        </mxCell>
        <mxCell id="EZrMMr4mUKjMRH0wWhmC-217" style="edgeStyle=orthogonalEdgeStyle;rounded=0;orthogonalLoop=1;jettySize=auto;html=1;" edge="1" parent="1" source="EZrMMr4mUKjMRH0wWhmC-1" target="EZrMMr4mUKjMRH0wWhmC-216">
          <mxGeometry relative="1" as="geometry">
            <Array as="points">
              <mxPoint x="-1930" y="867" />
              <mxPoint x="-1930" y="-756" />
            </Array>
          </mxGeometry>
        </mxCell>
        <mxCell id="EZrMMr4mUKjMRH0wWhmC-1" value="" style="sketch=0;pointerEvents=1;shadow=0;dashed=0;html=1;strokeColor=none;fillColor=#005F4B;labelPosition=center;verticalLabelPosition=bottom;verticalAlign=top;align=center;outlineConnect=0;shape=mxgraph.veeam2.cloud;" vertex="1" parent="1">
          <mxGeometry x="-2140" y="824" width="140" height="86" as="geometry" />
        </mxCell>
        <mxCell id="EZrMMr4mUKjMRH0wWhmC-186" value="" style="edgeStyle=orthogonalEdgeStyle;rounded=0;orthogonalLoop=1;jettySize=auto;html=1;" edge="1" parent="1" source="EZrMMr4mUKjMRH0wWhmC-5" target="EZrMMr4mUKjMRH0wWhmC-1">
          <mxGeometry relative="1" as="geometry" />
        </mxCell>
        <mxCell id="EZrMMr4mUKjMRH0wWhmC-5" value="&lt;div&gt;&lt;span style=&quot;font-size: 24px;&quot;&gt;云服务器&lt;/span&gt;&lt;/div&gt;&lt;div&gt;&lt;span style=&quot;font-size: 24px;&quot;&gt;10.1.23.X&lt;/span&gt;&lt;span style=&quot;font-size: 24px;&quot;&gt;&lt;br&gt;&lt;/span&gt;&lt;/div&gt;" style="text;strokeColor=none;align=center;fillColor=none;html=1;verticalAlign=middle;whiteSpace=wrap;rounded=0;" vertex="1" parent="1">
          <mxGeometry x="-2150" y="919.5" width="160" height="105" as="geometry" />
        </mxCell>
        <mxCell id="EZrMMr4mUKjMRH0wWhmC-6" value="" style="sketch=0;pointerEvents=1;shadow=0;dashed=0;html=1;strokeColor=none;fillColor=#005F4B;labelPosition=center;verticalLabelPosition=bottom;verticalAlign=top;align=center;outlineConnect=0;shape=mxgraph.veeam2.monitor;" vertex="1" parent="1">
          <mxGeometry x="-2130" y="264" width="120" height="89" as="geometry" />
        </mxCell>
        <mxCell id="EZrMMr4mUKjMRH0wWhmC-9" style="edgeStyle=orthogonalEdgeStyle;rounded=0;orthogonalLoop=1;jettySize=auto;html=1;" edge="1" parent="1" target="EZrMMr4mUKjMRH0wWhmC-1">
          <mxGeometry relative="1" as="geometry">
            <mxPoint x="-2070" y="629" as="sourcePoint" />
          </mxGeometry>
        </mxCell>
        <mxCell id="EZrMMr4mUKjMRH0wWhmC-11" value="&lt;div&gt;&lt;span style=&quot;font-size: 24px;&quot;&gt;互联网&lt;/span&gt;&lt;/div&gt;&lt;div&gt;&lt;span style=&quot;font-size: 24px;&quot;&gt;HTTPS&lt;/span&gt;&lt;/div&gt;" style="text;strokeColor=none;align=center;fillColor=none;html=1;verticalAlign=middle;whiteSpace=wrap;rounded=0;" vertex="1" parent="1">
          <mxGeometry x="-2200" y="629" width="160" height="105" as="geometry" />
        </mxCell>
        <mxCell id="EZrMMr4mUKjMRH0wWhmC-12" value="&lt;span style=&quot;font-size: 24px;&quot;&gt;PC&lt;/span&gt;" style="text;strokeColor=none;align=center;fillColor=none;html=1;verticalAlign=middle;whiteSpace=wrap;rounded=0;" vertex="1" parent="1">
          <mxGeometry x="-2200" y="324" width="160" height="105" as="geometry" />
        </mxCell>
        <mxCell id="EZrMMr4mUKjMRH0wWhmC-17" value="&lt;div&gt;&lt;br&gt;&lt;/div&gt;&lt;div&gt;&lt;span style=&quot;font-size: 24px;&quot;&gt;营收应用服务器&lt;/span&gt;&lt;/div&gt;" style="text;strokeColor=none;align=center;fillColor=none;html=1;verticalAlign=middle;whiteSpace=wrap;rounded=0;" vertex="1" parent="1">
          <mxGeometry x="-1880" y="1524.5" width="170" height="105" as="geometry" />
        </mxCell>
        <mxCell id="EZrMMr4mUKjMRH0wWhmC-19" style="edgeStyle=orthogonalEdgeStyle;rounded=0;orthogonalLoop=1;jettySize=auto;html=1;entryX=0.5;entryY=0;entryDx=0;entryDy=0;entryPerimeter=0;" edge="1" parent="1" source="EZrMMr4mUKjMRH0wWhmC-6" target="5fc5e51f7ca293a3-5">
          <mxGeometry relative="1" as="geometry" />
        </mxCell>
        <mxCell id="EZrMMr4mUKjMRH0wWhmC-20" value="" style="sketch=0;pointerEvents=1;shadow=0;dashed=0;html=1;strokeColor=none;fillColor=#005F4B;labelPosition=center;verticalLabelPosition=bottom;verticalAlign=top;align=center;outlineConnect=0;shape=mxgraph.veeam2.cloud;" vertex="1" parent="1">
          <mxGeometry x="-1870" y="1437" width="140" height="89" as="geometry" />
        </mxCell>
        <mxCell id="EZrMMr4mUKjMRH0wWhmC-24" style="edgeStyle=orthogonalEdgeStyle;rounded=0;orthogonalLoop=1;jettySize=auto;html=1;entryX=0;entryY=0.5;entryDx=0;entryDy=0;entryPerimeter=0;" edge="1" parent="1" source="EZrMMr4mUKjMRH0wWhmC-20" target="5fc5e51f7ca293a3-215">
          <mxGeometry relative="1" as="geometry" />
        </mxCell>
        <mxCell id="EZrMMr4mUKjMRH0wWhmC-25" value="" style="sketch=0;pointerEvents=1;shadow=0;dashed=0;html=1;strokeColor=none;fillColor=#005F4B;labelPosition=center;verticalLabelPosition=bottom;verticalAlign=top;align=center;outlineConnect=0;shape=mxgraph.veeam2.cloud;" vertex="1" parent="1">
          <mxGeometry x="-1874" y="1750" width="140" height="89" as="geometry" />
        </mxCell>
        <mxCell id="EZrMMr4mUKjMRH0wWhmC-26" value="&lt;div&gt;&lt;span style=&quot;font-size: 24px;&quot;&gt;营收数据库服务器&lt;/span&gt;&lt;/div&gt;&lt;div&gt;&lt;span style=&quot;font-size: 24px;&quot;&gt;10.1.23.2:22&lt;/span&gt;&lt;span style=&quot;font-size: 24px;&quot;&gt;&lt;br&gt;&lt;/span&gt;&lt;/div&gt;" style="text;strokeColor=none;align=center;fillColor=none;html=1;verticalAlign=middle;whiteSpace=wrap;rounded=0;" vertex="1" parent="1">
          <mxGeometry x="-1900" y="1850" width="194" height="105" as="geometry" />
        </mxCell>
        <mxCell id="EZrMMr4mUKjMRH0wWhmC-34" style="edgeStyle=orthogonalEdgeStyle;rounded=0;orthogonalLoop=1;jettySize=auto;html=1;" edge="1" parent="1" source="EZrMMr4mUKjMRH0wWhmC-28" target="EZrMMr4mUKjMRH0wWhmC-33">
          <mxGeometry relative="1" as="geometry" />
        </mxCell>
        <mxCell id="EZrMMr4mUKjMRH0wWhmC-28" value="firewall" style="fontColor=#0066CC;verticalAlign=top;verticalLabelPosition=bottom;labelPosition=center;align=center;html=1;fillColor=#CCCCCC;strokeColor=#6881B3;gradientColor=none;gradientDirection=north;strokeWidth=2;shape=mxgraph.networks.firewall;rounded=1;shadow=0;comic=0;labelBackgroundColor=#ffffff;" vertex="1" parent="1">
          <mxGeometry x="-1580" y="1750" width="100" height="100" as="geometry" />
        </mxCell>
        <mxCell id="EZrMMr4mUKjMRH0wWhmC-31" style="edgeStyle=orthogonalEdgeStyle;rounded=0;orthogonalLoop=1;jettySize=auto;html=1;entryX=0;entryY=0.5;entryDx=0;entryDy=0;entryPerimeter=0;" edge="1" parent="1">
          <mxGeometry relative="1" as="geometry">
            <mxPoint x="-1740" y="1800" as="sourcePoint" />
            <mxPoint x="-1580" y="1800" as="targetPoint" />
          </mxGeometry>
        </mxCell>
        <mxCell id="EZrMMr4mUKjMRH0wWhmC-72" style="edgeStyle=orthogonalEdgeStyle;rounded=0;orthogonalLoop=1;jettySize=auto;html=1;" edge="1" parent="1" source="EZrMMr4mUKjMRH0wWhmC-33">
          <mxGeometry relative="1" as="geometry">
            <mxPoint x="-790" y="1630" as="targetPoint" />
            <Array as="points">
              <mxPoint x="-780" y="1790" />
              <mxPoint x="-780" y="1630" />
            </Array>
          </mxGeometry>
        </mxCell>
        <mxCell id="EZrMMr4mUKjMRH0wWhmC-73" style="edgeStyle=orthogonalEdgeStyle;rounded=0;orthogonalLoop=1;jettySize=auto;html=1;" edge="1" parent="1" source="EZrMMr4mUKjMRH0wWhmC-33" target="EZrMMr4mUKjMRH0wWhmC-20">
          <mxGeometry relative="1" as="geometry">
            <Array as="points">
              <mxPoint x="-1217" y="1730" />
              <mxPoint x="-1800" y="1730" />
            </Array>
          </mxGeometry>
        </mxCell>
        <mxCell id="EZrMMr4mUKjMRH0wWhmC-81" style="edgeStyle=orthogonalEdgeStyle;rounded=0;orthogonalLoop=1;jettySize=auto;html=1;" edge="1" parent="1" source="EZrMMr4mUKjMRH0wWhmC-33" target="EZrMMr4mUKjMRH0wWhmC-54">
          <mxGeometry relative="1" as="geometry">
            <Array as="points">
              <mxPoint x="-690" y="1820" />
            </Array>
          </mxGeometry>
        </mxCell>
        <mxCell id="EZrMMr4mUKjMRH0wWhmC-33" value="" style="sketch=0;shadow=0;dashed=0;html=1;strokeColor=none;labelPosition=center;verticalLabelPosition=bottom;verticalAlign=top;outlineConnect=0;align=center;shape=mxgraph.office.databases.database_mini_2;fillColor=#2072B8;" vertex="1" parent="1">
          <mxGeometry x="-1269" y="1751.7500000000002" width="104" height="98.25" as="geometry" />
        </mxCell>
        <mxCell id="EZrMMr4mUKjMRH0wWhmC-35" value="&lt;div&gt;&lt;span style=&quot;font-size: 24px;&quot;&gt;营收数据库（Oracle）&lt;/span&gt;&lt;/div&gt;&lt;div&gt;&lt;span style=&quot;font-size: 24px;&quot;&gt;10.1.23.2:1521&lt;/span&gt;&lt;span style=&quot;font-size: 24px;&quot;&gt;&lt;br&gt;&lt;/span&gt;&lt;/div&gt;" style="text;strokeColor=none;align=center;fillColor=none;html=1;verticalAlign=middle;whiteSpace=wrap;rounded=0;" vertex="1" parent="1">
          <mxGeometry x="-1332.5" y="1850" width="254" height="105" as="geometry" />
        </mxCell>
        <mxCell id="EZrMMr4mUKjMRH0wWhmC-76" style="edgeStyle=orthogonalEdgeStyle;rounded=0;orthogonalLoop=1;jettySize=auto;html=1;" edge="1" parent="1" source="EZrMMr4mUKjMRH0wWhmC-37">
          <mxGeometry relative="1" as="geometry">
            <mxPoint x="-1010" y="1312.5" as="targetPoint" />
          </mxGeometry>
        </mxCell>
        <mxCell id="EZrMMr4mUKjMRH0wWhmC-37" value="" style="sketch=0;pointerEvents=1;shadow=0;dashed=0;html=1;strokeColor=none;fillColor=#005F4B;labelPosition=center;verticalLabelPosition=bottom;verticalAlign=top;align=center;outlineConnect=0;shape=mxgraph.veeam2.cloud;" vertex="1" parent="1">
          <mxGeometry x="-1287" y="1268" width="140" height="89" as="geometry" />
        </mxCell>
        <mxCell id="EZrMMr4mUKjMRH0wWhmC-51" style="edgeStyle=orthogonalEdgeStyle;rounded=0;orthogonalLoop=1;jettySize=auto;html=1;entryX=0;entryY=0.5;entryDx=0;entryDy=0;entryPerimeter=0;" edge="1" parent="1" source="EZrMMr4mUKjMRH0wWhmC-38" target="5fc5e51f7ca293a3-198">
          <mxGeometry relative="1" as="geometry">
            <mxPoint x="-1030" y="1611.5" as="targetPoint" />
          </mxGeometry>
        </mxCell>
        <mxCell id="EZrMMr4mUKjMRH0wWhmC-38" value="" style="sketch=0;pointerEvents=1;shadow=0;dashed=0;html=1;strokeColor=none;fillColor=#005F4B;labelPosition=center;verticalLabelPosition=bottom;verticalAlign=top;align=center;outlineConnect=0;shape=mxgraph.veeam2.cloud;" vertex="1" parent="1">
          <mxGeometry x="-1287" y="1567" width="140" height="89" as="geometry" />
        </mxCell>
        <mxCell id="EZrMMr4mUKjMRH0wWhmC-41" value="&lt;div&gt;&lt;br&gt;&lt;/div&gt;&lt;div&gt;&lt;span style=&quot;font-size: 24px;&quot;&gt;营收应用服务器（外）&lt;/span&gt;&lt;/div&gt;&lt;div&gt;&lt;span style=&quot;font-size: 24px;&quot;&gt;113.140.36.246:22&lt;/span&gt;&lt;/div&gt;" style="text;strokeColor=none;align=center;fillColor=none;html=1;verticalAlign=middle;whiteSpace=wrap;rounded=0;" vertex="1" parent="1">
          <mxGeometry x="-1361" y="1645" width="311" height="105" as="geometry" />
        </mxCell>
        <mxCell id="EZrMMr4mUKjMRH0wWhmC-44" value="&lt;div&gt;&lt;br&gt;&lt;/div&gt;&lt;div&gt;&lt;span style=&quot;font-size: 24px;&quot;&gt;营收应用服务器（内）&lt;/span&gt;&lt;/div&gt;&lt;div&gt;&lt;span style=&quot;font-size: 24px;&quot;&gt;10.1.23.3:22&lt;/span&gt;&lt;/div&gt;" style="text;strokeColor=none;align=center;fillColor=none;html=1;verticalAlign=middle;whiteSpace=wrap;rounded=0;" vertex="1" parent="1">
          <mxGeometry x="-1361" y="1374.5" width="311" height="105" as="geometry" />
        </mxCell>
        <mxCell id="EZrMMr4mUKjMRH0wWhmC-47" style="edgeStyle=orthogonalEdgeStyle;rounded=0;orthogonalLoop=1;jettySize=auto;html=1;" edge="1" parent="1" source="EZrMMr4mUKjMRH0wWhmC-45" target="EZrMMr4mUKjMRH0wWhmC-37">
          <mxGeometry relative="1" as="geometry" />
        </mxCell>
        <mxCell id="EZrMMr4mUKjMRH0wWhmC-49" style="edgeStyle=orthogonalEdgeStyle;rounded=0;orthogonalLoop=1;jettySize=auto;html=1;" edge="1" parent="1" source="EZrMMr4mUKjMRH0wWhmC-45" target="EZrMMr4mUKjMRH0wWhmC-38">
          <mxGeometry relative="1" as="geometry" />
        </mxCell>
        <mxCell id="EZrMMr4mUKjMRH0wWhmC-45" value="" style="html=1;fillColor=#CCCCCC;strokeColor=#6881B3;gradientColor=none;gradientDirection=north;strokeWidth=2;shape=mxgraph.networks.bus;gradientColor=none;gradientDirection=north;fontColor=#ffffff;perimeter=backbonePerimeter;backboneSize=20;rounded=1;shadow=0;comic=0;labelBackgroundColor=#ffffff;rotation=90;" vertex="1" parent="1">
          <mxGeometry x="-1602" y="1482" width="448" height="20" as="geometry" />
        </mxCell>
        <mxCell id="EZrMMr4mUKjMRH0wWhmC-46" style="edgeStyle=orthogonalEdgeStyle;rounded=0;orthogonalLoop=1;jettySize=auto;html=1;entryX=0.478;entryY=1.1;entryDx=0;entryDy=0;entryPerimeter=0;" edge="1" parent="1" source="5fc5e51f7ca293a3-215" target="EZrMMr4mUKjMRH0wWhmC-45">
          <mxGeometry relative="1" as="geometry" />
        </mxCell>
        <mxCell id="EZrMMr4mUKjMRH0wWhmC-77" style="edgeStyle=orthogonalEdgeStyle;rounded=0;orthogonalLoop=1;jettySize=auto;html=1;" edge="1" parent="1">
          <mxGeometry relative="1" as="geometry">
            <mxPoint x="-750" y="1307" as="targetPoint" />
            <mxPoint x="-910" y="1307.0000000000002" as="sourcePoint" />
          </mxGeometry>
        </mxCell>
        <mxCell id="EZrMMr4mUKjMRH0wWhmC-80" style="edgeStyle=orthogonalEdgeStyle;rounded=0;orthogonalLoop=1;jettySize=auto;html=1;" edge="1" parent="1" source="EZrMMr4mUKjMRH0wWhmC-54" target="EZrMMr4mUKjMRH0wWhmC-33">
          <mxGeometry relative="1" as="geometry">
            <Array as="points">
              <mxPoint x="-680" y="1830" />
            </Array>
          </mxGeometry>
        </mxCell>
        <mxCell id="EZrMMr4mUKjMRH0wWhmC-54" value="router" style="fontColor=#0066CC;verticalAlign=top;verticalLabelPosition=bottom;labelPosition=center;align=center;html=1;fillColor=#CCCCCC;strokeColor=#6881B3;gradientColor=none;gradientDirection=north;strokeWidth=2;shape=mxgraph.networks.router;rounded=1;shadow=0;comic=0;labelBackgroundColor=#ffffff;" vertex="1" parent="1">
          <mxGeometry x="-740" y="1297" width="100" height="30" as="geometry" />
        </mxCell>
        <mxCell id="EZrMMr4mUKjMRH0wWhmC-57" style="edgeStyle=none;html=1;labelBackgroundColor=none;endArrow=none;strokeWidth=2;fontFamily=Verdana;fontSize=28;fontColor=#0066CC;rounded=0;strokeColor=#6881B3;" edge="1" parent="1" source="EZrMMr4mUKjMRH0wWhmC-62" target="EZrMMr4mUKjMRH0wWhmC-65">
          <mxGeometry relative="1" as="geometry" />
        </mxCell>
        <mxCell id="EZrMMr4mUKjMRH0wWhmC-58" style="edgeStyle=none;html=1;labelBackgroundColor=none;endArrow=none;strokeWidth=2;fontFamily=Verdana;fontSize=28;fontColor=#0066CC;rounded=0;strokeColor=#6881B3;" edge="1" parent="1" source="EZrMMr4mUKjMRH0wWhmC-62" target="EZrMMr4mUKjMRH0wWhmC-68">
          <mxGeometry relative="1" as="geometry" />
        </mxCell>
        <mxCell id="EZrMMr4mUKjMRH0wWhmC-61" style="edgeStyle=none;html=1;labelBackgroundColor=none;endArrow=none;strokeWidth=2;fontFamily=Verdana;fontSize=28;fontColor=#0066CC;rounded=0;strokeColor=#6881B3;" edge="1" parent="1" source="EZrMMr4mUKjMRH0wWhmC-62" target="EZrMMr4mUKjMRH0wWhmC-54">
          <mxGeometry relative="1" as="geometry" />
        </mxCell>
        <mxCell id="EZrMMr4mUKjMRH0wWhmC-62" value="switch" style="fontColor=#0066CC;verticalAlign=top;verticalLabelPosition=bottom;labelPosition=center;align=center;html=1;fillColor=#CCCCCC;strokeColor=#6881B3;gradientColor=none;gradientDirection=north;strokeWidth=2;shape=mxgraph.networks.switch;rounded=1;shadow=0;comic=0;labelBackgroundColor=#ffffff;" vertex="1" parent="1">
          <mxGeometry x="-470" y="1292" width="100" height="30" as="geometry" />
        </mxCell>
        <mxCell id="EZrMMr4mUKjMRH0wWhmC-65" value="workstation" style="fontColor=#0066CC;verticalAlign=top;verticalLabelPosition=bottom;labelPosition=center;align=center;html=1;fillColor=#CCCCCC;strokeColor=#6881B3;gradientColor=none;gradientDirection=north;strokeWidth=2;shape=mxgraph.networks.pc;rounded=1;shadow=0;comic=0;labelBackgroundColor=#ffffff;" vertex="1" parent="1">
          <mxGeometry x="-230" y="1205" width="100" height="70" as="geometry" />
        </mxCell>
        <mxCell id="EZrMMr4mUKjMRH0wWhmC-68" value="workstation" style="fontColor=#0066CC;verticalAlign=top;verticalLabelPosition=bottom;labelPosition=center;align=center;html=1;fillColor=#CCCCCC;strokeColor=#6881B3;gradientColor=none;gradientDirection=north;strokeWidth=2;shape=mxgraph.networks.pc;rounded=1;shadow=0;comic=0;labelBackgroundColor=#ffffff;" vertex="1" parent="1">
          <mxGeometry x="-230" y="1412" width="100" height="70" as="geometry" />
        </mxCell>
        <mxCell id="EZrMMr4mUKjMRH0wWhmC-69" style="edgeStyle=none;html=1;labelBackgroundColor=none;endArrow=none;strokeWidth=2;fontFamily=Verdana;fontSize=28;fontColor=#0066CC;rounded=0;strokeColor=#6881B3;" edge="1" parent="1" source="EZrMMr4mUKjMRH0wWhmC-70" target="EZrMMr4mUKjMRH0wWhmC-62">
          <mxGeometry relative="1" as="geometry" />
        </mxCell>
        <mxCell id="EZrMMr4mUKjMRH0wWhmC-70" value="printer" style="fontColor=#0066CC;verticalAlign=top;verticalLabelPosition=bottom;labelPosition=center;align=center;html=1;fillColor=#CCCCCC;strokeColor=#6881B3;gradientColor=none;gradientDirection=north;strokeWidth=2;shape=mxgraph.networks.printer;rounded=1;shadow=0;comic=0;labelBackgroundColor=#ffffff;" vertex="1" parent="1">
          <mxGeometry x="-230" y="1302" width="100" height="100" as="geometry" />
        </mxCell>
        <mxCell id="EZrMMr4mUKjMRH0wWhmC-82" value="" style="sketch=0;pointerEvents=1;shadow=0;dashed=0;html=1;strokeColor=none;fillColor=#005F4B;labelPosition=center;verticalLabelPosition=bottom;verticalAlign=top;align=center;outlineConnect=0;shape=mxgraph.veeam2.cloud;" vertex="1" parent="1">
          <mxGeometry x="-1865" y="1044" width="140" height="89" as="geometry" />
        </mxCell>
        <mxCell id="EZrMMr4mUKjMRH0wWhmC-101" style="edgeStyle=orthogonalEdgeStyle;rounded=0;orthogonalLoop=1;jettySize=auto;html=1;" edge="1" parent="1" source="EZrMMr4mUKjMRH0wWhmC-83">
          <mxGeometry relative="1" as="geometry">
            <mxPoint x="-1220.0000000000005" y="1100" as="targetPoint" />
          </mxGeometry>
        </mxCell>
        <mxCell id="EZrMMr4mUKjMRH0wWhmC-83" value="firewall" style="fontColor=#0066CC;verticalAlign=top;verticalLabelPosition=bottom;labelPosition=center;align=center;html=1;fillColor=#CCCCCC;strokeColor=#6881B3;gradientColor=none;gradientDirection=north;strokeWidth=2;shape=mxgraph.networks.firewall;rounded=1;shadow=0;comic=0;labelBackgroundColor=#ffffff;" vertex="1" parent="1">
          <mxGeometry x="-1590" y="1050" width="100" height="100" as="geometry" />
        </mxCell>
        <mxCell id="EZrMMr4mUKjMRH0wWhmC-85" value="&lt;div&gt;&lt;span style=&quot;font-size: 24px;&quot;&gt;微信、支付宝服务器&lt;/span&gt;&lt;/div&gt;&lt;div&gt;&lt;span style=&quot;font-size: 24px;&quot;&gt;10.1.23.4:22&lt;/span&gt;&lt;span style=&quot;font-size: 24px;&quot;&gt;&lt;br&gt;&lt;/span&gt;&lt;/div&gt;" style="text;strokeColor=none;align=center;fillColor=none;html=1;verticalAlign=middle;whiteSpace=wrap;rounded=0;" vertex="1" parent="1">
          <mxGeometry x="-1906" y="1144" width="222" height="105" as="geometry" />
        </mxCell>
        <mxCell id="EZrMMr4mUKjMRH0wWhmC-86" style="edgeStyle=orthogonalEdgeStyle;rounded=0;orthogonalLoop=1;jettySize=auto;html=1;entryX=0;entryY=0.385;entryDx=0;entryDy=0;entryPerimeter=0;" edge="1" parent="1" source="EZrMMr4mUKjMRH0wWhmC-82" target="EZrMMr4mUKjMRH0wWhmC-83">
          <mxGeometry relative="1" as="geometry" />
        </mxCell>
        <mxCell id="EZrMMr4mUKjMRH0wWhmC-102" style="edgeStyle=orthogonalEdgeStyle;rounded=0;orthogonalLoop=1;jettySize=auto;html=1;" edge="1" parent="1">
          <mxGeometry relative="1" as="geometry">
            <mxPoint x="-780.0000000000005" y="1094" as="targetPoint" />
            <mxPoint x="-1120" y="1094.0434782608695" as="sourcePoint" />
          </mxGeometry>
        </mxCell>
        <mxCell id="EZrMMr4mUKjMRH0wWhmC-89" value="router" style="fontColor=#0066CC;verticalAlign=top;verticalLabelPosition=bottom;labelPosition=center;align=center;html=1;fillColor=#CCCCCC;strokeColor=#6881B3;gradientColor=none;gradientDirection=north;strokeWidth=2;shape=mxgraph.networks.router;rounded=1;shadow=0;comic=0;labelBackgroundColor=#ffffff;" vertex="1" parent="1">
          <mxGeometry x="-777" y="1085" width="100" height="30" as="geometry" />
        </mxCell>
        <mxCell id="EZrMMr4mUKjMRH0wWhmC-90" style="edgeStyle=none;html=1;labelBackgroundColor=none;endArrow=none;strokeWidth=2;fontFamily=Verdana;fontSize=28;fontColor=#0066CC;rounded=0;strokeColor=#6881B3;" edge="1" parent="1" source="EZrMMr4mUKjMRH0wWhmC-93" target="EZrMMr4mUKjMRH0wWhmC-94">
          <mxGeometry relative="1" as="geometry" />
        </mxCell>
        <mxCell id="EZrMMr4mUKjMRH0wWhmC-91" style="edgeStyle=none;html=1;labelBackgroundColor=none;endArrow=none;strokeWidth=2;fontFamily=Verdana;fontSize=28;fontColor=#0066CC;rounded=0;strokeColor=#6881B3;" edge="1" parent="1" source="EZrMMr4mUKjMRH0wWhmC-93" target="EZrMMr4mUKjMRH0wWhmC-95">
          <mxGeometry relative="1" as="geometry" />
        </mxCell>
        <mxCell id="EZrMMr4mUKjMRH0wWhmC-92" style="edgeStyle=none;html=1;labelBackgroundColor=none;endArrow=none;strokeWidth=2;fontFamily=Verdana;fontSize=28;fontColor=#0066CC;rounded=0;strokeColor=#6881B3;" edge="1" parent="1" source="EZrMMr4mUKjMRH0wWhmC-93" target="EZrMMr4mUKjMRH0wWhmC-89">
          <mxGeometry relative="1" as="geometry" />
        </mxCell>
        <mxCell id="EZrMMr4mUKjMRH0wWhmC-93" value="switch" style="fontColor=#0066CC;verticalAlign=top;verticalLabelPosition=bottom;labelPosition=center;align=center;html=1;fillColor=#CCCCCC;strokeColor=#6881B3;gradientColor=none;gradientDirection=north;strokeWidth=2;shape=mxgraph.networks.switch;rounded=1;shadow=0;comic=0;labelBackgroundColor=#ffffff;" vertex="1" parent="1">
          <mxGeometry x="-470" y="1073.5" width="100" height="30" as="geometry" />
        </mxCell>
        <mxCell id="EZrMMr4mUKjMRH0wWhmC-94" value="workstation" style="fontColor=#0066CC;verticalAlign=top;verticalLabelPosition=bottom;labelPosition=center;align=center;html=1;fillColor=#CCCCCC;strokeColor=#6881B3;gradientColor=none;gradientDirection=north;strokeWidth=2;shape=mxgraph.networks.pc;rounded=1;shadow=0;comic=0;labelBackgroundColor=#ffffff;" vertex="1" parent="1">
          <mxGeometry x="-240" y="930" width="100" height="70" as="geometry" />
        </mxCell>
        <mxCell id="EZrMMr4mUKjMRH0wWhmC-95" value="workstation" style="fontColor=#0066CC;verticalAlign=top;verticalLabelPosition=bottom;labelPosition=center;align=center;html=1;fillColor=#CCCCCC;strokeColor=#6881B3;gradientColor=none;gradientDirection=north;strokeWidth=2;shape=mxgraph.networks.pc;rounded=1;shadow=0;comic=0;labelBackgroundColor=#ffffff;" vertex="1" parent="1">
          <mxGeometry x="-230" y="1120" width="100" height="70" as="geometry" />
        </mxCell>
        <mxCell id="EZrMMr4mUKjMRH0wWhmC-96" style="edgeStyle=none;html=1;labelBackgroundColor=none;endArrow=none;strokeWidth=2;fontFamily=Verdana;fontSize=28;fontColor=#0066CC;rounded=0;strokeColor=#6881B3;" edge="1" parent="1" source="EZrMMr4mUKjMRH0wWhmC-97" target="EZrMMr4mUKjMRH0wWhmC-93">
          <mxGeometry relative="1" as="geometry" />
        </mxCell>
        <mxCell id="EZrMMr4mUKjMRH0wWhmC-97" value="printer" style="fontColor=#0066CC;verticalAlign=top;verticalLabelPosition=bottom;labelPosition=center;align=center;html=1;fillColor=#CCCCCC;strokeColor=#6881B3;gradientColor=none;gradientDirection=north;strokeWidth=2;shape=mxgraph.networks.printer;rounded=1;shadow=0;comic=0;labelBackgroundColor=#ffffff;" vertex="1" parent="1">
          <mxGeometry x="-230" y="1010" width="100" height="100" as="geometry" />
        </mxCell>
        <mxCell id="EZrMMr4mUKjMRH0wWhmC-103" value="" style="sketch=0;pointerEvents=1;shadow=0;dashed=0;html=1;strokeColor=none;fillColor=#005F4B;labelPosition=center;verticalLabelPosition=bottom;verticalAlign=top;align=center;outlineConnect=0;shape=mxgraph.veeam2.cloud;" vertex="1" parent="1">
          <mxGeometry x="-1865" y="767" width="140" height="89" as="geometry" />
        </mxCell>
        <mxCell id="EZrMMr4mUKjMRH0wWhmC-104" style="edgeStyle=orthogonalEdgeStyle;rounded=0;orthogonalLoop=1;jettySize=auto;html=1;" edge="1" parent="1" source="EZrMMr4mUKjMRH0wWhmC-105">
          <mxGeometry relative="1" as="geometry">
            <mxPoint x="-1229.0000000000005" y="823" as="targetPoint" />
          </mxGeometry>
        </mxCell>
        <mxCell id="EZrMMr4mUKjMRH0wWhmC-105" value="firewall" style="fontColor=#0066CC;verticalAlign=top;verticalLabelPosition=bottom;labelPosition=center;align=center;html=1;fillColor=#CCCCCC;strokeColor=#6881B3;gradientColor=none;gradientDirection=north;strokeWidth=2;shape=mxgraph.networks.firewall;rounded=1;shadow=0;comic=0;labelBackgroundColor=#ffffff;" vertex="1" parent="1">
          <mxGeometry x="-1599" y="773" width="100" height="100" as="geometry" />
        </mxCell>
        <mxCell id="EZrMMr4mUKjMRH0wWhmC-106" style="edgeStyle=orthogonalEdgeStyle;rounded=0;orthogonalLoop=1;jettySize=auto;html=1;entryX=0;entryY=0.385;entryDx=0;entryDy=0;entryPerimeter=0;" edge="1" parent="1" source="EZrMMr4mUKjMRH0wWhmC-103" target="EZrMMr4mUKjMRH0wWhmC-105">
          <mxGeometry relative="1" as="geometry" />
        </mxCell>
        <mxCell id="EZrMMr4mUKjMRH0wWhmC-107" style="edgeStyle=orthogonalEdgeStyle;rounded=0;orthogonalLoop=1;jettySize=auto;html=1;" edge="1" parent="1">
          <mxGeometry relative="1" as="geometry">
            <mxPoint x="-789.0000000000005" y="817" as="targetPoint" />
            <mxPoint x="-1129" y="817" as="sourcePoint" />
          </mxGeometry>
        </mxCell>
        <mxCell id="EZrMMr4mUKjMRH0wWhmC-109" value="router" style="fontColor=#0066CC;verticalAlign=top;verticalLabelPosition=bottom;labelPosition=center;align=center;html=1;fillColor=#CCCCCC;strokeColor=#6881B3;gradientColor=none;gradientDirection=north;strokeWidth=2;shape=mxgraph.networks.router;rounded=1;shadow=0;comic=0;labelBackgroundColor=#ffffff;" vertex="1" parent="1">
          <mxGeometry x="-786" y="808" width="100" height="30" as="geometry" />
        </mxCell>
        <mxCell id="EZrMMr4mUKjMRH0wWhmC-110" style="edgeStyle=none;html=1;labelBackgroundColor=none;endArrow=none;strokeWidth=2;fontFamily=Verdana;fontSize=28;fontColor=#0066CC;rounded=0;strokeColor=#6881B3;" edge="1" parent="1" source="EZrMMr4mUKjMRH0wWhmC-113" target="EZrMMr4mUKjMRH0wWhmC-114">
          <mxGeometry relative="1" as="geometry" />
        </mxCell>
        <mxCell id="EZrMMr4mUKjMRH0wWhmC-111" style="edgeStyle=none;html=1;labelBackgroundColor=none;endArrow=none;strokeWidth=2;fontFamily=Verdana;fontSize=28;fontColor=#0066CC;rounded=0;strokeColor=#6881B3;" edge="1" parent="1" source="EZrMMr4mUKjMRH0wWhmC-113" target="EZrMMr4mUKjMRH0wWhmC-115">
          <mxGeometry relative="1" as="geometry" />
        </mxCell>
        <mxCell id="EZrMMr4mUKjMRH0wWhmC-112" style="edgeStyle=none;html=1;labelBackgroundColor=none;endArrow=none;strokeWidth=2;fontFamily=Verdana;fontSize=28;fontColor=#0066CC;rounded=0;strokeColor=#6881B3;" edge="1" parent="1" source="EZrMMr4mUKjMRH0wWhmC-113" target="EZrMMr4mUKjMRH0wWhmC-109">
          <mxGeometry relative="1" as="geometry" />
        </mxCell>
        <mxCell id="EZrMMr4mUKjMRH0wWhmC-113" value="switch" style="fontColor=#0066CC;verticalAlign=top;verticalLabelPosition=bottom;labelPosition=center;align=center;html=1;fillColor=#CCCCCC;strokeColor=#6881B3;gradientColor=none;gradientDirection=north;strokeWidth=2;shape=mxgraph.networks.switch;rounded=1;shadow=0;comic=0;labelBackgroundColor=#ffffff;" vertex="1" parent="1">
          <mxGeometry x="-479" y="796.5" width="100" height="30" as="geometry" />
        </mxCell>
        <mxCell id="EZrMMr4mUKjMRH0wWhmC-114" value="workstation" style="fontColor=#0066CC;verticalAlign=top;verticalLabelPosition=bottom;labelPosition=center;align=center;html=1;fillColor=#CCCCCC;strokeColor=#6881B3;gradientColor=none;gradientDirection=north;strokeWidth=2;shape=mxgraph.networks.pc;rounded=1;shadow=0;comic=0;labelBackgroundColor=#ffffff;" vertex="1" parent="1">
          <mxGeometry x="-249" y="653" width="100" height="70" as="geometry" />
        </mxCell>
        <mxCell id="EZrMMr4mUKjMRH0wWhmC-115" value="workstation" style="fontColor=#0066CC;verticalAlign=top;verticalLabelPosition=bottom;labelPosition=center;align=center;html=1;fillColor=#CCCCCC;strokeColor=#6881B3;gradientColor=none;gradientDirection=north;strokeWidth=2;shape=mxgraph.networks.pc;rounded=1;shadow=0;comic=0;labelBackgroundColor=#ffffff;" vertex="1" parent="1">
          <mxGeometry x="-239" y="843" width="100" height="70" as="geometry" />
        </mxCell>
        <mxCell id="EZrMMr4mUKjMRH0wWhmC-116" style="edgeStyle=none;html=1;labelBackgroundColor=none;endArrow=none;strokeWidth=2;fontFamily=Verdana;fontSize=28;fontColor=#0066CC;rounded=0;strokeColor=#6881B3;" edge="1" parent="1" source="EZrMMr4mUKjMRH0wWhmC-117" target="EZrMMr4mUKjMRH0wWhmC-113">
          <mxGeometry relative="1" as="geometry" />
        </mxCell>
        <mxCell id="EZrMMr4mUKjMRH0wWhmC-117" value="printer" style="fontColor=#0066CC;verticalAlign=top;verticalLabelPosition=bottom;labelPosition=center;align=center;html=1;fillColor=#CCCCCC;strokeColor=#6881B3;gradientColor=none;gradientDirection=north;strokeWidth=2;shape=mxgraph.networks.printer;rounded=1;shadow=0;comic=0;labelBackgroundColor=#ffffff;" vertex="1" parent="1">
          <mxGeometry x="-239" y="733" width="100" height="100" as="geometry" />
        </mxCell>
        <mxCell id="EZrMMr4mUKjMRH0wWhmC-118" value="&lt;div&gt;&lt;span style=&quot;font-size: 24px;&quot;&gt;短信、电子发票政务网接口服务器&lt;/span&gt;&lt;/div&gt;&lt;div&gt;&lt;span style=&quot;font-size: 24px;&quot;&gt;10.1.23.5:22&lt;/span&gt;&lt;span style=&quot;font-size: 24px;&quot;&gt;&lt;br&gt;&lt;/span&gt;&lt;/div&gt;" style="text;strokeColor=none;align=center;fillColor=none;html=1;verticalAlign=middle;whiteSpace=wrap;rounded=0;" vertex="1" parent="1">
          <mxGeometry x="-1911" y="859" width="222" height="105" as="geometry" />
        </mxCell>
        <mxCell id="EZrMMr4mUKjMRH0wWhmC-120" value="ISP" style="fontColor=#0066CC;verticalAlign=top;verticalLabelPosition=bottom;labelPosition=center;align=center;html=1;fillColor=#CCCCCC;strokeColor=#6881B3;gradientColor=none;gradientDirection=north;strokeWidth=2;shape=mxgraph.networks.server;rounded=1;shadow=0;comic=0;labelBackgroundColor=#ffffff;" vertex="1" parent="1">
          <mxGeometry x="-1223" y="756" width="90" height="100" as="geometry" />
        </mxCell>
        <mxCell id="EZrMMr4mUKjMRH0wWhmC-121" value="ISP" style="fontColor=#0066CC;verticalAlign=top;verticalLabelPosition=bottom;labelPosition=center;align=center;html=1;fillColor=#CCCCCC;strokeColor=#6881B3;gradientColor=none;gradientDirection=north;strokeWidth=2;shape=mxgraph.networks.server;rounded=1;shadow=0;comic=0;labelBackgroundColor=#ffffff;" vertex="1" parent="1">
          <mxGeometry x="-1211" y="1034" width="90" height="100" as="geometry" />
        </mxCell>
        <mxCell id="EZrMMr4mUKjMRH0wWhmC-122" value="ISP" style="fontColor=#0066CC;verticalAlign=top;verticalLabelPosition=bottom;labelPosition=center;align=center;html=1;fillColor=#CCCCCC;strokeColor=#6881B3;gradientColor=none;gradientDirection=north;strokeWidth=2;shape=mxgraph.networks.server;rounded=1;shadow=0;comic=0;labelBackgroundColor=#ffffff;" vertex="1" parent="1">
          <mxGeometry x="-1006" y="1262.5" width="90" height="100" as="geometry" />
        </mxCell>
        <mxCell id="EZrMMr4mUKjMRH0wWhmC-173" value="" style="edgeStyle=orthogonalEdgeStyle;rounded=0;orthogonalLoop=1;jettySize=auto;html=1;" edge="1" parent="1" source="EZrMMr4mUKjMRH0wWhmC-123" target="EZrMMr4mUKjMRH0wWhmC-156">
          <mxGeometry relative="1" as="geometry" />
        </mxCell>
        <mxCell id="EZrMMr4mUKjMRH0wWhmC-123" value="" style="sketch=0;pointerEvents=1;shadow=0;dashed=0;html=1;strokeColor=none;fillColor=#005F4B;labelPosition=center;verticalLabelPosition=bottom;verticalAlign=top;align=center;outlineConnect=0;shape=mxgraph.veeam2.cloud;" vertex="1" parent="1">
          <mxGeometry x="-1874" y="494" width="140" height="89" as="geometry" />
        </mxCell>
        <mxCell id="EZrMMr4mUKjMRH0wWhmC-124" style="edgeStyle=orthogonalEdgeStyle;rounded=0;orthogonalLoop=1;jettySize=auto;html=1;" edge="1" parent="1" source="EZrMMr4mUKjMRH0wWhmC-125">
          <mxGeometry relative="1" as="geometry">
            <mxPoint x="-1238.0000000000005" y="550" as="targetPoint" />
          </mxGeometry>
        </mxCell>
        <mxCell id="EZrMMr4mUKjMRH0wWhmC-125" value="firewall" style="fontColor=#0066CC;verticalAlign=top;verticalLabelPosition=bottom;labelPosition=center;align=center;html=1;fillColor=#CCCCCC;strokeColor=#6881B3;gradientColor=none;gradientDirection=north;strokeWidth=2;shape=mxgraph.networks.firewall;rounded=1;shadow=0;comic=0;labelBackgroundColor=#ffffff;" vertex="1" parent="1">
          <mxGeometry x="-1608" y="500" width="100" height="100" as="geometry" />
        </mxCell>
        <mxCell id="EZrMMr4mUKjMRH0wWhmC-126" style="edgeStyle=orthogonalEdgeStyle;rounded=0;orthogonalLoop=1;jettySize=auto;html=1;entryX=0;entryY=0.385;entryDx=0;entryDy=0;entryPerimeter=0;" edge="1" parent="1" source="EZrMMr4mUKjMRH0wWhmC-123" target="EZrMMr4mUKjMRH0wWhmC-125">
          <mxGeometry relative="1" as="geometry" />
        </mxCell>
        <mxCell id="EZrMMr4mUKjMRH0wWhmC-127" style="edgeStyle=orthogonalEdgeStyle;rounded=0;orthogonalLoop=1;jettySize=auto;html=1;" edge="1" parent="1">
          <mxGeometry relative="1" as="geometry">
            <mxPoint x="-798.0000000000005" y="544" as="targetPoint" />
            <mxPoint x="-1138" y="544" as="sourcePoint" />
          </mxGeometry>
        </mxCell>
        <mxCell id="EZrMMr4mUKjMRH0wWhmC-128" value="router" style="fontColor=#0066CC;verticalAlign=top;verticalLabelPosition=bottom;labelPosition=center;align=center;html=1;fillColor=#CCCCCC;strokeColor=#6881B3;gradientColor=none;gradientDirection=north;strokeWidth=2;shape=mxgraph.networks.router;rounded=1;shadow=0;comic=0;labelBackgroundColor=#ffffff;" vertex="1" parent="1">
          <mxGeometry x="-795" y="535" width="100" height="30" as="geometry" />
        </mxCell>
        <mxCell id="EZrMMr4mUKjMRH0wWhmC-129" style="edgeStyle=none;html=1;labelBackgroundColor=none;endArrow=none;strokeWidth=2;fontFamily=Verdana;fontSize=28;fontColor=#0066CC;rounded=0;strokeColor=#6881B3;" edge="1" parent="1" source="EZrMMr4mUKjMRH0wWhmC-132" target="EZrMMr4mUKjMRH0wWhmC-133">
          <mxGeometry relative="1" as="geometry" />
        </mxCell>
        <mxCell id="EZrMMr4mUKjMRH0wWhmC-130" style="edgeStyle=none;html=1;labelBackgroundColor=none;endArrow=none;strokeWidth=2;fontFamily=Verdana;fontSize=28;fontColor=#0066CC;rounded=0;strokeColor=#6881B3;" edge="1" parent="1" source="EZrMMr4mUKjMRH0wWhmC-132" target="EZrMMr4mUKjMRH0wWhmC-134">
          <mxGeometry relative="1" as="geometry" />
        </mxCell>
        <mxCell id="EZrMMr4mUKjMRH0wWhmC-131" style="edgeStyle=none;html=1;labelBackgroundColor=none;endArrow=none;strokeWidth=2;fontFamily=Verdana;fontSize=28;fontColor=#0066CC;rounded=0;strokeColor=#6881B3;" edge="1" parent="1" source="EZrMMr4mUKjMRH0wWhmC-132" target="EZrMMr4mUKjMRH0wWhmC-128">
          <mxGeometry relative="1" as="geometry" />
        </mxCell>
        <mxCell id="EZrMMr4mUKjMRH0wWhmC-132" value="switch" style="fontColor=#0066CC;verticalAlign=top;verticalLabelPosition=bottom;labelPosition=center;align=center;html=1;fillColor=#CCCCCC;strokeColor=#6881B3;gradientColor=none;gradientDirection=north;strokeWidth=2;shape=mxgraph.networks.switch;rounded=1;shadow=0;comic=0;labelBackgroundColor=#ffffff;" vertex="1" parent="1">
          <mxGeometry x="-488" y="523.5" width="100" height="30" as="geometry" />
        </mxCell>
        <mxCell id="EZrMMr4mUKjMRH0wWhmC-133" value="workstation" style="fontColor=#0066CC;verticalAlign=top;verticalLabelPosition=bottom;labelPosition=center;align=center;html=1;fillColor=#CCCCCC;strokeColor=#6881B3;gradientColor=none;gradientDirection=north;strokeWidth=2;shape=mxgraph.networks.pc;rounded=1;shadow=0;comic=0;labelBackgroundColor=#ffffff;" vertex="1" parent="1">
          <mxGeometry x="-249" y="369" width="100" height="70" as="geometry" />
        </mxCell>
        <mxCell id="EZrMMr4mUKjMRH0wWhmC-134" value="workstation" style="fontColor=#0066CC;verticalAlign=top;verticalLabelPosition=bottom;labelPosition=center;align=center;html=1;fillColor=#CCCCCC;strokeColor=#6881B3;gradientColor=none;gradientDirection=north;strokeWidth=2;shape=mxgraph.networks.pc;rounded=1;shadow=0;comic=0;labelBackgroundColor=#ffffff;" vertex="1" parent="1">
          <mxGeometry x="-248" y="570" width="100" height="70" as="geometry" />
        </mxCell>
        <mxCell id="EZrMMr4mUKjMRH0wWhmC-135" style="edgeStyle=none;html=1;labelBackgroundColor=none;endArrow=none;strokeWidth=2;fontFamily=Verdana;fontSize=28;fontColor=#0066CC;rounded=0;strokeColor=#6881B3;" edge="1" parent="1" source="EZrMMr4mUKjMRH0wWhmC-136" target="EZrMMr4mUKjMRH0wWhmC-132">
          <mxGeometry relative="1" as="geometry" />
        </mxCell>
        <mxCell id="EZrMMr4mUKjMRH0wWhmC-136" value="printer" style="fontColor=#0066CC;verticalAlign=top;verticalLabelPosition=bottom;labelPosition=center;align=center;html=1;fillColor=#CCCCCC;strokeColor=#6881B3;gradientColor=none;gradientDirection=north;strokeWidth=2;shape=mxgraph.networks.printer;rounded=1;shadow=0;comic=0;labelBackgroundColor=#ffffff;" vertex="1" parent="1">
          <mxGeometry x="-248" y="460" width="100" height="100" as="geometry" />
        </mxCell>
        <mxCell id="EZrMMr4mUKjMRH0wWhmC-137" value="ISP" style="fontColor=#0066CC;verticalAlign=top;verticalLabelPosition=bottom;labelPosition=center;align=center;html=1;fillColor=#CCCCCC;strokeColor=#6881B3;gradientColor=none;gradientDirection=north;strokeWidth=2;shape=mxgraph.networks.server;rounded=1;shadow=0;comic=0;labelBackgroundColor=#ffffff;" vertex="1" parent="1">
          <mxGeometry x="-1232" y="483" width="90" height="100" as="geometry" />
        </mxCell>
        <mxCell id="EZrMMr4mUKjMRH0wWhmC-139" value="&lt;div&gt;&lt;span style=&quot;font-size: 24px;&quot;&gt;银行代收代扣服务器&lt;/span&gt;&lt;/div&gt;&lt;div&gt;&lt;span style=&quot;font-size: 24px;&quot;&gt;10.1.23.6:22&lt;/span&gt;&lt;/div&gt;" style="text;strokeColor=none;align=center;fillColor=none;html=1;verticalAlign=middle;whiteSpace=wrap;rounded=0;" vertex="1" parent="1">
          <mxGeometry x="-1906" y="604" width="222" height="105" as="geometry" />
        </mxCell>
        <mxCell id="EZrMMr4mUKjMRH0wWhmC-141" value="" style="sketch=0;pointerEvents=1;shadow=0;dashed=0;html=1;strokeColor=none;fillColor=#005F4B;labelPosition=center;verticalLabelPosition=bottom;verticalAlign=top;align=center;outlineConnect=0;shape=mxgraph.veeam2.cloud;" vertex="1" parent="1">
          <mxGeometry x="-1880" y="213" width="140" height="89" as="geometry" />
        </mxCell>
        <mxCell id="EZrMMr4mUKjMRH0wWhmC-142" style="edgeStyle=orthogonalEdgeStyle;rounded=0;orthogonalLoop=1;jettySize=auto;html=1;" edge="1" parent="1" source="EZrMMr4mUKjMRH0wWhmC-143">
          <mxGeometry relative="1" as="geometry">
            <mxPoint x="-1244.0000000000005" y="269" as="targetPoint" />
          </mxGeometry>
        </mxCell>
        <mxCell id="EZrMMr4mUKjMRH0wWhmC-143" value="firewall" style="fontColor=#0066CC;verticalAlign=top;verticalLabelPosition=bottom;labelPosition=center;align=center;html=1;fillColor=#CCCCCC;strokeColor=#6881B3;gradientColor=none;gradientDirection=north;strokeWidth=2;shape=mxgraph.networks.firewall;rounded=1;shadow=0;comic=0;labelBackgroundColor=#ffffff;" vertex="1" parent="1">
          <mxGeometry x="-1614" y="219" width="100" height="100" as="geometry" />
        </mxCell>
        <mxCell id="EZrMMr4mUKjMRH0wWhmC-144" style="edgeStyle=orthogonalEdgeStyle;rounded=0;orthogonalLoop=1;jettySize=auto;html=1;entryX=0;entryY=0.385;entryDx=0;entryDy=0;entryPerimeter=0;" edge="1" parent="1" source="EZrMMr4mUKjMRH0wWhmC-141" target="EZrMMr4mUKjMRH0wWhmC-143">
          <mxGeometry relative="1" as="geometry" />
        </mxCell>
        <mxCell id="EZrMMr4mUKjMRH0wWhmC-145" style="edgeStyle=orthogonalEdgeStyle;rounded=0;orthogonalLoop=1;jettySize=auto;html=1;" edge="1" parent="1">
          <mxGeometry relative="1" as="geometry">
            <mxPoint x="-804.0000000000005" y="263" as="targetPoint" />
            <mxPoint x="-1144" y="263" as="sourcePoint" />
          </mxGeometry>
        </mxCell>
        <mxCell id="EZrMMr4mUKjMRH0wWhmC-176" style="edgeStyle=orthogonalEdgeStyle;rounded=0;orthogonalLoop=1;jettySize=auto;html=1;" edge="1" parent="1" source="EZrMMr4mUKjMRH0wWhmC-146" target="EZrMMr4mUKjMRH0wWhmC-170">
          <mxGeometry relative="1" as="geometry">
            <Array as="points">
              <mxPoint x="-751" y="-10" />
            </Array>
          </mxGeometry>
        </mxCell>
        <mxCell id="EZrMMr4mUKjMRH0wWhmC-146" value="router" style="fontColor=#0066CC;verticalAlign=top;verticalLabelPosition=bottom;labelPosition=center;align=center;html=1;fillColor=#CCCCCC;strokeColor=#6881B3;gradientColor=none;gradientDirection=north;strokeWidth=2;shape=mxgraph.networks.router;rounded=1;shadow=0;comic=0;labelBackgroundColor=#ffffff;" vertex="1" parent="1">
          <mxGeometry x="-801" y="254" width="100" height="30" as="geometry" />
        </mxCell>
        <mxCell id="EZrMMr4mUKjMRH0wWhmC-147" style="edgeStyle=none;html=1;labelBackgroundColor=none;endArrow=none;strokeWidth=2;fontFamily=Verdana;fontSize=28;fontColor=#0066CC;rounded=0;strokeColor=#6881B3;" edge="1" parent="1" source="EZrMMr4mUKjMRH0wWhmC-150" target="EZrMMr4mUKjMRH0wWhmC-151">
          <mxGeometry relative="1" as="geometry" />
        </mxCell>
        <mxCell id="EZrMMr4mUKjMRH0wWhmC-148" style="edgeStyle=none;html=1;labelBackgroundColor=none;endArrow=none;strokeWidth=2;fontFamily=Verdana;fontSize=28;fontColor=#0066CC;rounded=0;strokeColor=#6881B3;" edge="1" parent="1" source="EZrMMr4mUKjMRH0wWhmC-150" target="EZrMMr4mUKjMRH0wWhmC-152">
          <mxGeometry relative="1" as="geometry" />
        </mxCell>
        <mxCell id="EZrMMr4mUKjMRH0wWhmC-149" style="edgeStyle=none;html=1;labelBackgroundColor=none;endArrow=none;strokeWidth=2;fontFamily=Verdana;fontSize=28;fontColor=#0066CC;rounded=0;strokeColor=#6881B3;" edge="1" parent="1" source="EZrMMr4mUKjMRH0wWhmC-150" target="EZrMMr4mUKjMRH0wWhmC-146">
          <mxGeometry relative="1" as="geometry" />
        </mxCell>
        <mxCell id="EZrMMr4mUKjMRH0wWhmC-150" value="switch" style="fontColor=#0066CC;verticalAlign=top;verticalLabelPosition=bottom;labelPosition=center;align=center;html=1;fillColor=#CCCCCC;strokeColor=#6881B3;gradientColor=none;gradientDirection=north;strokeWidth=2;shape=mxgraph.networks.switch;rounded=1;shadow=0;comic=0;labelBackgroundColor=#ffffff;" vertex="1" parent="1">
          <mxGeometry x="-494" y="242.5" width="100" height="30" as="geometry" />
        </mxCell>
        <mxCell id="EZrMMr4mUKjMRH0wWhmC-151" value="workstation" style="fontColor=#0066CC;verticalAlign=top;verticalLabelPosition=bottom;labelPosition=center;align=center;html=1;fillColor=#CCCCCC;strokeColor=#6881B3;gradientColor=none;gradientDirection=north;strokeWidth=2;shape=mxgraph.networks.pc;rounded=1;shadow=0;comic=0;labelBackgroundColor=#ffffff;" vertex="1" parent="1">
          <mxGeometry x="-255" y="88" width="100" height="70" as="geometry" />
        </mxCell>
        <mxCell id="EZrMMr4mUKjMRH0wWhmC-152" value="workstation" style="fontColor=#0066CC;verticalAlign=top;verticalLabelPosition=bottom;labelPosition=center;align=center;html=1;fillColor=#CCCCCC;strokeColor=#6881B3;gradientColor=none;gradientDirection=north;strokeWidth=2;shape=mxgraph.networks.pc;rounded=1;shadow=0;comic=0;labelBackgroundColor=#ffffff;" vertex="1" parent="1">
          <mxGeometry x="-254" y="289" width="100" height="70" as="geometry" />
        </mxCell>
        <mxCell id="EZrMMr4mUKjMRH0wWhmC-153" style="edgeStyle=none;html=1;labelBackgroundColor=none;endArrow=none;strokeWidth=2;fontFamily=Verdana;fontSize=28;fontColor=#0066CC;rounded=0;strokeColor=#6881B3;" edge="1" parent="1" source="EZrMMr4mUKjMRH0wWhmC-154" target="EZrMMr4mUKjMRH0wWhmC-150">
          <mxGeometry relative="1" as="geometry" />
        </mxCell>
        <mxCell id="EZrMMr4mUKjMRH0wWhmC-154" value="printer" style="fontColor=#0066CC;verticalAlign=top;verticalLabelPosition=bottom;labelPosition=center;align=center;html=1;fillColor=#CCCCCC;strokeColor=#6881B3;gradientColor=none;gradientDirection=north;strokeWidth=2;shape=mxgraph.networks.printer;rounded=1;shadow=0;comic=0;labelBackgroundColor=#ffffff;" vertex="1" parent="1">
          <mxGeometry x="-254" y="179" width="100" height="100" as="geometry" />
        </mxCell>
        <mxCell id="EZrMMr4mUKjMRH0wWhmC-155" value="ISP" style="fontColor=#0066CC;verticalAlign=top;verticalLabelPosition=bottom;labelPosition=center;align=center;html=1;fillColor=#CCCCCC;strokeColor=#6881B3;gradientColor=none;gradientDirection=north;strokeWidth=2;shape=mxgraph.networks.server;rounded=1;shadow=0;comic=0;labelBackgroundColor=#ffffff;" vertex="1" parent="1">
          <mxGeometry x="-1238" y="202" width="90" height="100" as="geometry" />
        </mxCell>
        <mxCell id="EZrMMr4mUKjMRH0wWhmC-156" value="&lt;div&gt;&lt;span style=&quot;font-size: 24px;&quot;&gt;外业综合小程序服务器&lt;/span&gt;&lt;/div&gt;&lt;div&gt;&lt;span style=&quot;font-size: 24px;&quot;&gt;10.1.23.7:22&lt;/span&gt;&lt;/div&gt;" style="text;strokeColor=none;align=center;fillColor=none;html=1;verticalAlign=middle;whiteSpace=wrap;rounded=0;" vertex="1" parent="1">
          <mxGeometry x="-1929.5" y="344" width="251" height="105" as="geometry" />
        </mxCell>
        <mxCell id="EZrMMr4mUKjMRH0wWhmC-165" value="" style="sketch=0;pointerEvents=1;shadow=0;dashed=0;html=1;strokeColor=none;fillColor=#005F4B;labelPosition=center;verticalLabelPosition=bottom;verticalAlign=top;align=center;outlineConnect=0;shape=mxgraph.veeam2.cloud;" vertex="1" parent="1">
          <mxGeometry x="-1875" y="-56" width="140" height="89" as="geometry" />
        </mxCell>
        <mxCell id="EZrMMr4mUKjMRH0wWhmC-166" value="&lt;div&gt;&lt;span style=&quot;font-size: 24px;&quot;&gt;网厅服务器&lt;/span&gt;&lt;/div&gt;&lt;div&gt;&lt;span style=&quot;font-size: 24px;&quot;&gt;10.1.23.8:22&lt;/span&gt;&lt;span style=&quot;font-size: 24px;&quot;&gt;&lt;br&gt;&lt;/span&gt;&lt;/div&gt;" style="text;strokeColor=none;align=center;fillColor=none;html=1;verticalAlign=middle;whiteSpace=wrap;rounded=0;" vertex="1" parent="1">
          <mxGeometry x="-1901" y="44" width="194" height="105" as="geometry" />
        </mxCell>
        <mxCell id="EZrMMr4mUKjMRH0wWhmC-167" style="edgeStyle=orthogonalEdgeStyle;rounded=0;orthogonalLoop=1;jettySize=auto;html=1;" edge="1" parent="1" source="EZrMMr4mUKjMRH0wWhmC-168" target="EZrMMr4mUKjMRH0wWhmC-170">
          <mxGeometry relative="1" as="geometry" />
        </mxCell>
        <mxCell id="EZrMMr4mUKjMRH0wWhmC-168" value="firewall" style="fontColor=#0066CC;verticalAlign=top;verticalLabelPosition=bottom;labelPosition=center;align=center;html=1;fillColor=#CCCCCC;strokeColor=#6881B3;gradientColor=none;gradientDirection=north;strokeWidth=2;shape=mxgraph.networks.firewall;rounded=1;shadow=0;comic=0;labelBackgroundColor=#ffffff;" vertex="1" parent="1">
          <mxGeometry x="-1602" y="-56" width="100" height="100" as="geometry" />
        </mxCell>
        <mxCell id="EZrMMr4mUKjMRH0wWhmC-169" style="edgeStyle=orthogonalEdgeStyle;rounded=0;orthogonalLoop=1;jettySize=auto;html=1;entryX=0;entryY=0.5;entryDx=0;entryDy=0;entryPerimeter=0;" edge="1" parent="1">
          <mxGeometry relative="1" as="geometry">
            <mxPoint x="-1741" y="-6" as="sourcePoint" />
            <mxPoint x="-1581" y="-6" as="targetPoint" />
          </mxGeometry>
        </mxCell>
        <mxCell id="EZrMMr4mUKjMRH0wWhmC-175" style="edgeStyle=orthogonalEdgeStyle;rounded=0;orthogonalLoop=1;jettySize=auto;html=1;" edge="1" parent="1" source="EZrMMr4mUKjMRH0wWhmC-170" target="EZrMMr4mUKjMRH0wWhmC-141">
          <mxGeometry relative="1" as="geometry">
            <Array as="points">
              <mxPoint x="-1200" y="130" />
              <mxPoint x="-1810" y="130" />
            </Array>
          </mxGeometry>
        </mxCell>
        <mxCell id="EZrMMr4mUKjMRH0wWhmC-170" value="" style="sketch=0;shadow=0;dashed=0;html=1;strokeColor=none;labelPosition=center;verticalLabelPosition=bottom;verticalAlign=top;outlineConnect=0;align=center;shape=mxgraph.office.databases.database_mini_2;fillColor=#2072B8;" vertex="1" parent="1">
          <mxGeometry x="-1252" y="-54.24999999999977" width="104" height="98.25" as="geometry" />
        </mxCell>
        <mxCell id="EZrMMr4mUKjMRH0wWhmC-171" value="&lt;div&gt;&lt;span style=&quot;font-size: 24px;&quot;&gt;网厅数据库（mysql）&lt;/span&gt;&lt;/div&gt;&lt;div&gt;&lt;span style=&quot;font-size: 24px;&quot;&gt;10.1.23.8:14417&lt;/span&gt;&lt;span style=&quot;font-size: 24px;&quot;&gt;&lt;br&gt;&lt;/span&gt;&lt;/div&gt;" style="text;strokeColor=none;align=center;fillColor=none;html=1;verticalAlign=middle;whiteSpace=wrap;rounded=0;" vertex="1" parent="1">
          <mxGeometry x="-1181" y="53" width="194" height="105" as="geometry" />
        </mxCell>
        <mxCell id="EZrMMr4mUKjMRH0wWhmC-178" style="edgeStyle=orthogonalEdgeStyle;rounded=0;orthogonalLoop=1;jettySize=auto;html=1;" edge="1" parent="1" source="EZrMMr4mUKjMRH0wWhmC-170">
          <mxGeometry relative="1" as="geometry">
            <mxPoint x="-768" y="250" as="targetPoint" />
            <Array as="points">
              <mxPoint x="-768" y="10" />
            </Array>
          </mxGeometry>
        </mxCell>
        <mxCell id="EZrMMr4mUKjMRH0wWhmC-179" value="" style="sketch=0;pointerEvents=1;shadow=0;dashed=0;html=1;strokeColor=none;fillColor=#005F4B;labelPosition=center;verticalLabelPosition=bottom;verticalAlign=top;align=center;outlineConnect=0;shape=mxgraph.veeam2.cloud;" vertex="1" parent="1">
          <mxGeometry x="-1881" y="-370" width="140" height="89" as="geometry" />
        </mxCell>
        <mxCell id="EZrMMr4mUKjMRH0wWhmC-180" value="&lt;div&gt;&lt;span style=&quot;font-size: 24px;&quot;&gt;集抄数据库服务器&lt;/span&gt;&lt;/div&gt;" style="text;strokeColor=none;align=center;fillColor=none;html=1;verticalAlign=middle;whiteSpace=wrap;rounded=0;" vertex="1" parent="1">
          <mxGeometry x="-1907" y="-270" width="194" height="105" as="geometry" />
        </mxCell>
        <mxCell id="EZrMMr4mUKjMRH0wWhmC-182" value="firewall" style="fontColor=#0066CC;verticalAlign=top;verticalLabelPosition=bottom;labelPosition=center;align=center;html=1;fillColor=#CCCCCC;strokeColor=#6881B3;gradientColor=none;gradientDirection=north;strokeWidth=2;shape=mxgraph.networks.firewall;rounded=1;shadow=0;comic=0;labelBackgroundColor=#ffffff;" vertex="1" parent="1">
          <mxGeometry x="-1608" y="-370" width="100" height="100" as="geometry" />
        </mxCell>
        <mxCell id="EZrMMr4mUKjMRH0wWhmC-183" style="edgeStyle=orthogonalEdgeStyle;rounded=0;orthogonalLoop=1;jettySize=auto;html=1;entryX=0;entryY=0.5;entryDx=0;entryDy=0;entryPerimeter=0;" edge="1" parent="1">
          <mxGeometry relative="1" as="geometry">
            <mxPoint x="-1747" y="-320" as="sourcePoint" />
            <mxPoint x="-1587" y="-320" as="targetPoint" />
          </mxGeometry>
        </mxCell>
        <mxCell id="EZrMMr4mUKjMRH0wWhmC-209" style="edgeStyle=orthogonalEdgeStyle;rounded=0;orthogonalLoop=1;jettySize=auto;html=1;" edge="1" parent="1" source="EZrMMr4mUKjMRH0wWhmC-190">
          <mxGeometry relative="1" as="geometry">
            <mxPoint x="-1210.0000000000005" y="-670" as="targetPoint" />
          </mxGeometry>
        </mxCell>
        <mxCell id="EZrMMr4mUKjMRH0wWhmC-210" style="edgeStyle=orthogonalEdgeStyle;rounded=0;orthogonalLoop=1;jettySize=auto;html=1;" edge="1" parent="1" source="EZrMMr4mUKjMRH0wWhmC-190">
          <mxGeometry relative="1" as="geometry">
            <mxPoint x="-1210.0000000000005" y="-460" as="targetPoint" />
          </mxGeometry>
        </mxCell>
        <mxCell id="EZrMMr4mUKjMRH0wWhmC-213" style="edgeStyle=orthogonalEdgeStyle;rounded=0;orthogonalLoop=1;jettySize=auto;html=1;" edge="1" parent="1" source="EZrMMr4mUKjMRH0wWhmC-190">
          <mxGeometry relative="1" as="geometry">
            <mxPoint x="-1210.0000000000005" y="-209.99999999999977" as="targetPoint" />
          </mxGeometry>
        </mxCell>
        <mxCell id="EZrMMr4mUKjMRH0wWhmC-190" value="" style="html=1;fillColor=#CCCCCC;strokeColor=#6881B3;gradientColor=none;gradientDirection=north;strokeWidth=2;shape=mxgraph.networks.bus;gradientColor=none;gradientDirection=north;fontColor=#ffffff;perimeter=backbonePerimeter;backboneSize=20;rounded=1;shadow=0;comic=0;labelBackgroundColor=#ffffff;rotation=90;" vertex="1" parent="1">
          <mxGeometry x="-1580" y="-410" width="548" height="20" as="geometry" />
        </mxCell>
        <mxCell id="EZrMMr4mUKjMRH0wWhmC-223" style="edgeStyle=orthogonalEdgeStyle;rounded=0;orthogonalLoop=1;jettySize=auto;html=1;" edge="1" parent="1" source="EZrMMr4mUKjMRH0wWhmC-191" target="EZrMMr4mUKjMRH0wWhmC-220">
          <mxGeometry relative="1" as="geometry" />
        </mxCell>
        <mxCell id="EZrMMr4mUKjMRH0wWhmC-191" value="" style="sketch=0;pointerEvents=1;shadow=0;dashed=0;html=1;strokeColor=none;fillColor=#005F4B;labelPosition=center;verticalLabelPosition=bottom;verticalAlign=top;align=center;outlineConnect=0;shape=mxgraph.veeam2.cloud;" vertex="1" parent="1">
          <mxGeometry x="-1190" y="-719" width="140" height="89" as="geometry" />
        </mxCell>
        <mxCell id="EZrMMr4mUKjMRH0wWhmC-215" style="edgeStyle=orthogonalEdgeStyle;rounded=0;orthogonalLoop=1;jettySize=auto;html=1;" edge="1" parent="1" source="EZrMMr4mUKjMRH0wWhmC-192">
          <mxGeometry relative="1" as="geometry">
            <mxPoint x="-870" y="-469.5" as="targetPoint" />
          </mxGeometry>
        </mxCell>
        <mxCell id="EZrMMr4mUKjMRH0wWhmC-192" value="" style="sketch=0;pointerEvents=1;shadow=0;dashed=0;html=1;strokeColor=none;fillColor=#005F4B;labelPosition=center;verticalLabelPosition=bottom;verticalAlign=top;align=center;outlineConnect=0;shape=mxgraph.veeam2.cloud;" vertex="1" parent="1">
          <mxGeometry x="-1181" y="-514" width="140" height="89" as="geometry" />
        </mxCell>
        <mxCell id="EZrMMr4mUKjMRH0wWhmC-214" style="edgeStyle=orthogonalEdgeStyle;rounded=0;orthogonalLoop=1;jettySize=auto;html=1;" edge="1" parent="1" source="EZrMMr4mUKjMRH0wWhmC-193">
          <mxGeometry relative="1" as="geometry">
            <mxPoint x="-880" y="-217.50000000000023" as="targetPoint" />
          </mxGeometry>
        </mxCell>
        <mxCell id="EZrMMr4mUKjMRH0wWhmC-193" value="" style="sketch=0;pointerEvents=1;shadow=0;dashed=0;html=1;strokeColor=none;fillColor=#005F4B;labelPosition=center;verticalLabelPosition=bottom;verticalAlign=top;align=center;outlineConnect=0;shape=mxgraph.veeam2.cloud;" vertex="1" parent="1">
          <mxGeometry x="-1190" y="-262" width="140" height="89" as="geometry" />
        </mxCell>
        <mxCell id="EZrMMr4mUKjMRH0wWhmC-194" value="&lt;div&gt;&lt;span style=&quot;font-size: 24px;&quot;&gt;集抄数据库服务器&lt;/span&gt;&lt;/div&gt;" style="text;strokeColor=none;align=center;fillColor=none;html=1;verticalAlign=middle;whiteSpace=wrap;rounded=0;" vertex="1" parent="1">
          <mxGeometry x="-1217" y="-640" width="194" height="105" as="geometry" />
        </mxCell>
        <mxCell id="EZrMMr4mUKjMRH0wWhmC-195" style="edgeStyle=orthogonalEdgeStyle;rounded=0;orthogonalLoop=1;jettySize=auto;html=1;entryX=0.378;entryY=0.067;entryDx=0;entryDy=0;entryPerimeter=0;" edge="1" parent="1" source="EZrMMr4mUKjMRH0wWhmC-182" target="EZrMMr4mUKjMRH0wWhmC-190">
          <mxGeometry relative="1" as="geometry" />
        </mxCell>
        <mxCell id="EZrMMr4mUKjMRH0wWhmC-196" value="&lt;div&gt;&lt;span style=&quot;font-size: 24px;&quot;&gt;集抄数据库服务器&lt;/span&gt;&lt;/div&gt;&lt;div&gt;&lt;span style=&quot;font-size: 24px;&quot;&gt;10.1.23.10:22&lt;/span&gt;&lt;/div&gt;" style="text;strokeColor=none;align=center;fillColor=none;html=1;verticalAlign=middle;whiteSpace=wrap;rounded=0;" vertex="1" parent="1">
          <mxGeometry x="-1200" y="-410" width="194" height="105" as="geometry" />
        </mxCell>
        <mxCell id="EZrMMr4mUKjMRH0wWhmC-197" value="&lt;div&gt;&lt;span style=&quot;font-size: 24px;&quot;&gt;集抄数据库服务器&lt;/span&gt;&lt;/div&gt;&lt;div&gt;&lt;span style=&quot;font-size: 24px;&quot;&gt;10.1.23.11:22&lt;/span&gt;&lt;/div&gt;" style="text;strokeColor=none;align=center;fillColor=none;html=1;verticalAlign=middle;whiteSpace=wrap;rounded=0;" vertex="1" parent="1">
          <mxGeometry x="-1208" y="-173" width="194" height="105" as="geometry" />
        </mxCell>
        <mxCell id="EZrMMr4mUKjMRH0wWhmC-199" value="" style="sketch=0;shadow=0;dashed=0;html=1;strokeColor=none;labelPosition=center;verticalLabelPosition=bottom;verticalAlign=top;outlineConnect=0;align=center;shape=mxgraph.office.databases.database_mini_2;fillColor=#2072B8;" vertex="1" parent="1">
          <mxGeometry x="-864" y="-263.2499999999998" width="104" height="98.25" as="geometry" />
        </mxCell>
        <mxCell id="EZrMMr4mUKjMRH0wWhmC-200" value="&lt;div&gt;&lt;span style=&quot;font-size: 24px;&quot;&gt;集抄数据库数据库（Oracle）&lt;/span&gt;&lt;/div&gt;&lt;div&gt;&lt;span style=&quot;font-size: 24px;&quot;&gt;10.1.23.11:1521&lt;/span&gt;&lt;span style=&quot;font-size: 24px;&quot;&gt;&lt;br&gt;&lt;/span&gt;&lt;/div&gt;" style="text;strokeColor=none;align=center;fillColor=none;html=1;verticalAlign=middle;whiteSpace=wrap;rounded=0;" vertex="1" parent="1">
          <mxGeometry x="-915" y="-159.25" width="220" height="105" as="geometry" />
        </mxCell>
        <mxCell id="EZrMMr4mUKjMRH0wWhmC-201" value="" style="sketch=0;shadow=0;dashed=0;html=1;strokeColor=none;labelPosition=center;verticalLabelPosition=bottom;verticalAlign=top;outlineConnect=0;align=center;shape=mxgraph.office.databases.database_mini_2;fillColor=#2072B8;" vertex="1" parent="1">
          <mxGeometry x="-864" y="-513.9999999999998" width="104" height="98.25" as="geometry" />
        </mxCell>
        <mxCell id="EZrMMr4mUKjMRH0wWhmC-203" value="" style="sketch=0;shadow=0;dashed=0;html=1;strokeColor=none;labelPosition=center;verticalLabelPosition=bottom;verticalAlign=top;outlineConnect=0;align=center;shape=mxgraph.office.databases.database_mini_2;fillColor=#2072B8;" vertex="1" parent="1">
          <mxGeometry x="-510" y="-869.9999999999998" width="104" height="98.25" as="geometry" />
        </mxCell>
        <mxCell id="EZrMMr4mUKjMRH0wWhmC-205" value="&lt;div&gt;&lt;span style=&quot;font-size: 24px;&quot;&gt;集抄数据库数据库（Oracle）&lt;/span&gt;&lt;/div&gt;&lt;div&gt;&lt;span style=&quot;font-size: 24px;&quot;&gt;10.1.23.10:1521&lt;/span&gt;&lt;span style=&quot;font-size: 24px;&quot;&gt;&lt;br&gt;&lt;/span&gt;&lt;/div&gt;" style="text;strokeColor=none;align=center;fillColor=none;html=1;verticalAlign=middle;whiteSpace=wrap;rounded=0;" vertex="1" parent="1">
          <mxGeometry x="-913" y="-398.63" width="220" height="105" as="geometry" />
        </mxCell>
        <mxCell id="EZrMMr4mUKjMRH0wWhmC-206" value="&lt;div&gt;&lt;span style=&quot;font-size: 24px;&quot;&gt;集抄数据库数据库（Oracle）&lt;/span&gt;&lt;/div&gt;&lt;div&gt;&lt;span style=&quot;font-size: 24px;&quot;&gt;10.1.23.10:1521&lt;/span&gt;&lt;span style=&quot;font-size: 24px;&quot;&gt;&lt;br&gt;&lt;/span&gt;&lt;/div&gt;" style="text;strokeColor=none;align=center;fillColor=none;html=1;verticalAlign=middle;whiteSpace=wrap;rounded=0;" vertex="1" parent="1">
          <mxGeometry x="-568" y="-745.5" width="220" height="105" as="geometry" />
        </mxCell>
        <mxCell id="EZrMMr4mUKjMRH0wWhmC-216" value="" style="sketch=0;pointerEvents=1;shadow=0;dashed=0;html=1;strokeColor=none;fillColor=#005F4B;labelPosition=center;verticalLabelPosition=bottom;verticalAlign=top;align=center;outlineConnect=0;shape=mxgraph.veeam2.cloud;" vertex="1" parent="1">
          <mxGeometry x="-1881" y="-800" width="140" height="89" as="geometry" />
        </mxCell>
        <mxCell id="EZrMMr4mUKjMRH0wWhmC-219" value="&lt;div&gt;&lt;span style=&quot;font-size: 24px;&quot;&gt;备份云服务器&lt;/span&gt;&lt;/div&gt;&lt;div&gt;&lt;span style=&quot;font-size: 24px;&quot;&gt;10.1.23.12:22&lt;/span&gt;&lt;/div&gt;" style="text;strokeColor=none;align=center;fillColor=none;html=1;verticalAlign=middle;whiteSpace=wrap;rounded=0;" vertex="1" parent="1">
          <mxGeometry x="-1908" y="-711" width="194" height="105" as="geometry" />
        </mxCell>
        <mxCell id="EZrMMr4mUKjMRH0wWhmC-224" style="edgeStyle=orthogonalEdgeStyle;rounded=0;orthogonalLoop=1;jettySize=auto;html=1;" edge="1" parent="1" source="EZrMMr4mUKjMRH0wWhmC-220" target="EZrMMr4mUKjMRH0wWhmC-221">
          <mxGeometry relative="1" as="geometry" />
        </mxCell>
        <mxCell id="EZrMMr4mUKjMRH0wWhmC-225" style="edgeStyle=orthogonalEdgeStyle;rounded=0;orthogonalLoop=1;jettySize=auto;html=1;" edge="1" parent="1" source="EZrMMr4mUKjMRH0wWhmC-220" target="EZrMMr4mUKjMRH0wWhmC-222">
          <mxGeometry relative="1" as="geometry" />
        </mxCell>
        <mxCell id="EZrMMr4mUKjMRH0wWhmC-220" value="" style="html=1;fillColor=#CCCCCC;strokeColor=#6881B3;gradientColor=none;gradientDirection=north;strokeWidth=2;shape=mxgraph.networks.bus;gradientColor=none;gradientDirection=north;fontColor=#ffffff;perimeter=backbonePerimeter;backboneSize=20;rounded=1;shadow=0;comic=0;labelBackgroundColor=#ffffff;rotation=90;" vertex="1" parent="1">
          <mxGeometry x="-1100" y="-765.5" width="360" height="20" as="geometry" />
        </mxCell>
        <mxCell id="EZrMMr4mUKjMRH0wWhmC-228" style="edgeStyle=orthogonalEdgeStyle;rounded=0;orthogonalLoop=1;jettySize=auto;html=1;" edge="1" parent="1" source="EZrMMr4mUKjMRH0wWhmC-221" target="EZrMMr4mUKjMRH0wWhmC-203">
          <mxGeometry relative="1" as="geometry" />
        </mxCell>
        <mxCell id="EZrMMr4mUKjMRH0wWhmC-221" value="" style="sketch=0;pointerEvents=1;shadow=0;dashed=0;html=1;strokeColor=none;fillColor=#005F4B;labelPosition=center;verticalLabelPosition=bottom;verticalAlign=top;align=center;outlineConnect=0;shape=mxgraph.veeam2.cloud;" vertex="1" parent="1">
          <mxGeometry x="-817" y="-950" width="140" height="89" as="geometry" />
        </mxCell>
        <mxCell id="EZrMMr4mUKjMRH0wWhmC-229" style="edgeStyle=orthogonalEdgeStyle;rounded=0;orthogonalLoop=1;jettySize=auto;html=1;" edge="1" parent="1" source="EZrMMr4mUKjMRH0wWhmC-222" target="EZrMMr4mUKjMRH0wWhmC-203">
          <mxGeometry relative="1" as="geometry">
            <Array as="points">
              <mxPoint x="-590" y="-650" />
              <mxPoint x="-590" y="-821" />
            </Array>
          </mxGeometry>
        </mxCell>
        <mxCell id="EZrMMr4mUKjMRH0wWhmC-222" value="" style="sketch=0;pointerEvents=1;shadow=0;dashed=0;html=1;strokeColor=none;fillColor=#005F4B;labelPosition=center;verticalLabelPosition=bottom;verticalAlign=top;align=center;outlineConnect=0;shape=mxgraph.veeam2.cloud;" vertex="1" parent="1">
          <mxGeometry x="-817" y="-695" width="140" height="89" as="geometry" />
        </mxCell>
        <mxCell id="EZrMMr4mUKjMRH0wWhmC-226" value="&lt;div&gt;&lt;span style=&quot;font-size: 24px;&quot;&gt;集抄数据库服务器(内）&lt;/span&gt;&lt;/div&gt;&lt;div&gt;&lt;span style=&quot;font-size: 24px;&quot;&gt;10.1.23.9:22&lt;/span&gt;&lt;/div&gt;" style="text;strokeColor=none;align=center;fillColor=none;html=1;verticalAlign=middle;whiteSpace=wrap;rounded=0;" vertex="1" parent="1">
          <mxGeometry x="-844" y="-850" width="264" height="105" as="geometry" />
        </mxCell>
        <mxCell id="EZrMMr4mUKjMRH0wWhmC-227" value="&lt;div&gt;&lt;span style=&quot;font-size: 24px;&quot;&gt;集抄数据库服务器(外）&lt;/span&gt;&lt;/div&gt;&lt;div&gt;&lt;span style=&quot;font-size: 24px;&quot;&gt;113.140.36.225&lt;/span&gt;&lt;/div&gt;" style="text;strokeColor=none;align=center;fillColor=none;html=1;verticalAlign=middle;whiteSpace=wrap;rounded=0;" vertex="1" parent="1">
          <mxGeometry x="-864" y="-606" width="264" height="105" as="geometry" />
        </mxCell>
      </root>
    </mxGraphModel>
  </diagram>
</mxfile>
